<?xml version="1.0" encoding="utf-8"?>
<!-- Generator: Adobe Illustrator 22.1.0, SVG Export Plug-In . SVG Version: 6.00 Build 0)  -->
<svg version="1.1" id="Layer_1" xmlns="http://www.w3.org/2000/svg" xmlns:xlink="http://www.w3.org/1999/xlink" x="0px" y="0px"
	 viewBox="0 0 496 464" style="enable-background:new 0 0 496 464;" xml:space="preserve">
<style type="text/css">
	.st0{fill:none;stroke:#FFFFFF;stroke-width:6;stroke-miterlimit:10;}
	.st1{fill:none;stroke:#FFFFFF;stroke-width:7;stroke-miterlimit:10;}
	.st2{fill:none;stroke:#FFFFFF;stroke-width:4;stroke-miterlimit:10;}
	.st3{fill:#FFFFFF;stroke:#FFFFFF;stroke-width:7;stroke-miterlimit:10;}
	.st4{fill:none;stroke:#FFFFFF;stroke-width:5;stroke-miterlimit:10;}
	.st5{fill:none;stroke:#FFFFFF;stroke-width:10;stroke-miterlimit:10;}
</style>
<path class="st0" d="M432.9,274.1c-1.6,2.1-6.4,7.8-14.8,10.1c-6.1,1.6-11.3,0.7-14,0c-0.5,7.2-1.8,17.2-5.4,28.7
	c-2.3,7.3-5.7,17.9-14,29.5c-8.2,11.4-16.8,17.9-24.8,24.1c-4.5,3.4-12.7,9.2-24.1,14.8c-3.6,1.8-11.7,5.5-24.2,9.3
	c-31.6,9.5-60.3,9.7-63,9.7s-31.5-0.2-63-9.7c-12.5-3.7-20.6-7.5-24.2-9.3c-12.9-6.3-21.7-12.9-24.1-14.8
	c-6.2-4.8-15.4-11.9-24.1-24.1c-2.4-3.3-9.6-13.8-14.8-29.5c-3.8-11.7-5-22-5.4-29.5c-2.6,0.6-7.8,1.6-14,0
	c-0.8-0.2-8.9-2.3-14.8-9.3c-10-11.7-9.5-31.6,0-43.5c1.6-2,6.3-7.8,14.8-10.1c6.5-1.8,12.1-0.7,14.8,0c-0.5-3.4-0.9-8.4-0.4-14.4
	c0,0,1-9.3,4.8-19.4c5.8-15.3,19.7-32.5,34-43.6C169.3,114,223.8,114,248.6,114s79.3,0,116.5,29.1c16.6,13,29.3,31.5,34,43.6
	c3.7,9.7,4.8,19.4,4.8,19.4c0.7,5.8,0.6,10.8,0.4,14.4c2.6-0.7,7.8-1.6,14,0c8.4,2.3,13.1,8,14.8,10.1
	C442.3,242.6,442.3,262.1,432.9,274.1z"/>
<path class="st1" d="M246.8,263.4"/>
<path class="st2" d="M248.5,385.7c-22.7,0-66.3,0-82.7-29.3c-7.7-13.8-6.5-29-4.7-38.7c-5.5-1-26.1-5.6-38.8-24.2
	c-9.9-14.4-9.8-29.4-9.7-38.8c0.1-8,0.2-24.1,9.7-38.8c19.6-29.9,61.9-29,68.3-28.7c30.1,1.2,50.9,17.6,58.2,24.1
	c7.1-6.3,27.9-23,58.2-24.1c6.4-0.2,48.1-0.9,67.5,28.7c9.5,14.7,9.6,30.7,9.7,38.8c0.1,9.4,0.2,24.5-9.7,38.8
	c-12.7,18.6-33.3,23.2-38.8,24.2c1.9,9.6,3,24.8-4.7,38.7C314.8,385.7,271.1,385.7,248.5,385.7z"/>
<path class="st1" d="M301.8,273.1c-7.6-2.3-13.6,0.9-14.1,0.2c-0.8-1,7-8,16.2-5.1s11.6,13,10.4,13.4
	C313.2,281.8,309.7,275.4,301.8,273.1z"/>
<path class="st3" d="M209,144.4c-38.8-4.7-58.8-0.3-74.8,7c-12.8,5.8-22.7,13.3-29.3,19c-1-10.8-1.6-27.9,3.1-47.4
	c1.8-7.5,3.9-16.5,9.3-25.8c11.6-19.8,28.2-25.9,34-27.6c-0.9,2.7-1.6,5.4-2.5,8.2c25.9-11.1,103.3-39.4,182.8,5.4
	c23.3,13.2,41.8,29.8,56,45.5c-16.7-3-20.5-2.6-20.7-1.4c-0.3,1.8,7.1,4.5,15.1,11.4c8.8,7.6,14.4,17,18,24.5
	c-56.2,9.7-98.4,3.4-127.3-4.7C260.7,155.1,239.7,148.1,209,144.4z"/>
<path class="st1" d="M248.5,99.4"/>
<g>
	<path class="st4" d="M210.5,305c-13.8,0.2-27.7,0.2-41.5,0.4c-1.4-0.2-7.1-0.9-11.7-6c-4.7-5.3-4.7-11.6-4.7-12.8
		c0.2-7.6,0.4-15.2,0.6-22.8c0-5.1,4.2-9.3,9.3-9.3h61.3c0.8,0,4,0.2,6.6,2.7c3.6,3.6,2.6,8.6,2.4,8.9c-0.6,5.3-1.3,10.6-1.9,15.8
		c-0.5,2.6-1.9,8.5-6.8,14.1C219.1,301.9,213.1,304.2,210.5,305z"/>
	<path class="st4" d="M289,305c13.8,0.2,27.7,0.2,41.5,0.4c1.4-0.2,7.1-0.9,11.7-6c4.7-5.3,4.7-11.6,4.7-12.8
		c-0.2-7.6-0.4-15.2-0.6-22.8c0-5.1-4.2-9.3-9.3-9.3h-61.3c-0.8,0-4,0.2-6.6,2.7c-3.6,3.6-2.6,8.6-2.4,8.9
		c0.6,5.3,1.3,10.6,1.9,15.8c0.5,2.6,1.9,8.5,6.8,14.1C280.5,301.9,286.4,304.2,289,305z"/>
</g>
<path class="st1" d="M195.1,274.6c-8.3,1.6-12.6,7.1-13.5,6.7c-1.2-0.5,3-10.3,13.2-12s17.4,6.1,16.4,7.1
	C210.3,277.2,203.8,273.1,195.1,274.6z"/>
<line class="st1" x1="268.8" y1="274.1" x2="230.1" y2="274.1"/>
<line class="st2" x1="229.1" y1="311.4" x2="238" y2="322.6"/>
<line class="st2" x1="267" y1="311.4" x2="258.2" y2="322.6"/>
<path class="st4" d="M267.9,370.3c-13,0-25.9,0-38.9,0c2.7-1.6,9.7-5.4,19.4-5.4C258.2,364.9,265.2,368.6,267.9,370.3z"/>
<path class="st1" d="M82.1,377"/>
<path class="st2" d="M209.3,368.4c-2.6-1.2-7.7-3.7-9.8-9.2c-0.2-0.5-1.9-5,0-9.5c2.4-5.9,9.9-9.5,18.3-8.4
	c22,1.9,43.9,3.8,65.8,5.7c1,0.1,7.8,0.9,9.5,5.4c1.4,3.6-1.5,7.7-2.7,9.4C277.8,379.5,226.7,376.7,209.3,368.4z"/>
<path class="st5" d="M264,448.9h-31c-121.2,0-219.5-98.3-219.5-219.5l0,0C13.5,108.2,111.7,9.9,233,9.9h31
	c121.2,0,219.5,98.3,219.5,219.5l0,0C483.5,350.7,385.2,448.9,264,448.9z"/>
</svg>
